<svg xmlns="http://www.w3.org/2000/svg" xml:space="preserve" style="fill-rule:evenodd;clip-rule:evenodd;stroke-linejoin:round;stroke-miterlimit:2" viewBox="0 0 24 24">
    <path d="M473.003 358.109C405.305 911.777 650.379 1659.75 1206.47 1884.6c556.3-224.85 797.86-972.823 730.38-1526.491l-731.92-161.551-731.927 161.551Z" style="fill:#508590" transform="matrix(.00984 0 0 .01061 -3.586 -.195)"/><path d="M1784.97 500.977c53.41 437.836-137.59 1029.093-577.19 1206.683l-1.31-1334.385 578.5 127.702Z" style="fill:#7daeb7" transform="matrix(.00984 0 0 .01061 -3.586 -.195)"/>
    <ellipse cx="413.228" cy="523.904" rx="193.456" ry="195.026" style="fill:#9c6169" transform="matrix(.02635 0 0 .02842 7.05 -2.077)"/><circle cx="507.7" cy="456.972" r="85.124" style="fill:#f3d03e" transform="matrix(.04552 0 0 .0491 -8.707 -4.506)"/>
</svg>