<?xml version="1.0" encoding="UTF-8" standalone="no"?>
<!DOCTYPE svg PUBLIC "-//W3C//DTD SVG 1.1//EN" "http://www.w3.org/Graphics/SVG/1.1/DTD/svg11.dtd">
<svg width="100%" height="100%" viewBox="0 0 28 28" version="1.1" xmlns="http://www.w3.org/2000/svg" xmlns:xlink="http://www.w3.org/1999/xlink" xml:space="preserve" xmlns:serif="http://www.serif.com/" style="fill-rule:evenodd;clip-rule:evenodd;stroke-linejoin:round;stroke-miterlimit:2;">
    <g transform="matrix(0.0844913,0,0,0.0844913,-2.00589,-1.29609)">
        <circle cx="189.438" cy="181.038" r="165.698" style="fill:rgb(0,151,167);"/>
    </g>
    <g transform="matrix(0.0768445,0,0,0.0768445,-4.88529,-4.33819)">
        <path d="M134.663,255.61C131.778,246.007 129.481,236.227 127.755,226.35C125.999,216.298 124.836,206.142 124.241,195.956C123.881,189.813 123.722,183.657 123.797,177.504C123.866,171.786 124.14,166.064 124.682,160.37L125.906,147.501L138.856,147.255C150.512,147.034 162.147,145.675 173.513,143.067C184.418,140.566 195.036,136.918 205.123,132.07C210.947,129.27 216.613,126.066 221.988,122.477C226.864,119.221 231.555,115.605 235.827,111.585L245.76,102.24L255.692,111.585C259.964,115.605 264.655,119.221 269.531,122.477C274.906,126.066 280.572,129.27 286.397,132.07C296.483,136.918 307.102,140.566 318.006,143.067C329.373,145.675 341.007,147.034 352.664,147.255L365.613,147.501L366.838,160.37C367.38,166.064 367.654,171.786 367.723,177.504C367.797,183.657 367.638,189.813 367.279,195.956C366.683,206.142 365.521,216.298 363.764,226.35C362.039,236.227 359.742,246.007 356.857,255.61C348.616,283.047 335.728,308.543 317.863,330.981C299.943,353.488 277.895,371.823 252.967,386.11L245.76,390.241L238.552,386.11C213.624,371.823 191.576,353.488 173.657,330.981C155.792,308.543 142.904,283.047 134.663,255.61ZM245.76,375.559L246.639,375.054C270.162,361.575 290.991,344.295 307.901,323.057C324.751,301.894 336.883,277.84 344.656,251.965C347.397,242.839 349.574,233.543 351.214,224.158C352.885,214.595 354.006,204.934 354.573,195.243C354.916,189.389 355.081,183.519 355.01,177.655C354.945,172.286 354.686,166.915 354.177,161.569L354.028,159.998L352.451,159.968C339.911,159.73 327.392,158.279 315.165,155.473C303.342,152.761 291.838,148.79 280.905,143.534C274.536,140.472 268.336,136.972 262.459,133.047C257,129.402 251.755,125.353 246.972,120.853L245.76,119.713L244.547,120.853C239.764,125.353 234.52,129.402 229.061,133.047C223.183,136.973 216.984,140.472 210.615,143.534C199.681,148.79 188.177,152.761 176.356,155.473C164.127,158.279 151.609,159.73 139.069,159.968L137.491,159.998L137.341,161.569C136.833,166.915 136.574,172.286 136.509,177.655C136.439,183.519 136.604,189.389 136.946,195.244C137.513,204.934 138.633,214.595 140.305,224.158C141.945,233.543 144.123,242.839 146.864,251.965C154.636,277.841 166.77,301.894 183.619,323.057C200.529,344.295 221.358,361.575 244.88,375.054L245.76,375.559Z" style="fill:rgb(254,254,254);"/>
    </g>
    <g transform="matrix(0.0768445,0,0,0.0768445,-4.88529,-4.33819)">
        <path d="M342.326,170.773C314.776,169.745 292.783,162.803 276.378,154.918C261.746,147.884 251.532,140.093 245.76,135.053C239.988,140.093 229.773,147.884 215.141,154.918C198.737,162.803 176.744,169.745 149.193,170.773C148.248,183.923 147.628,214.953 158.207,250.17C169.64,288.237 194.214,331.144 245.76,361.377C297.305,331.144 321.879,288.237 333.313,250.17C343.891,214.953 343.272,183.923 342.326,170.773Z" style="fill:rgb(254,254,254);"/>
    </g>
</svg>
