<?xml version="1.0" encoding="UTF-8" standalone="no"?>
<!DOCTYPE svg PUBLIC "-//W3C//DTD SVG 1.1//EN" "http://www.w3.org/Graphics/SVG/1.1/DTD/svg11.dtd">
<svg width="100%" height="100%" viewBox="0 0 28 28" version="1.1" xmlns="http://www.w3.org/2000/svg" xmlns:xlink="http://www.w3.org/1999/xlink" xml:space="preserve" xmlns:serif="http://www.serif.com/" style="fill-rule:evenodd;clip-rule:evenodd;stroke-linejoin:round;stroke-miterlimit:2;">
    <g transform="matrix(0.0300217,0,0,0.0300219,-40.6241,-2.97655)">
        <path d="M2285.82,565.475C2285.82,823.022 2077.04,1031.8 1819.49,1031.8C1561.94,1031.8 1353.16,823.022 1353.16,565.475C1353.16,307.928 1561.94,99.146 1819.49,99.146C2077.04,99.146 2285.82,307.928 2285.82,565.475Z" style="fill:rgb(246,208,46);fill-rule:nonzero;"/>
    </g>
    <g transform="matrix(0.0300217,0,0,0.0300219,-40.6241,-2.97655)">
        <path d="M1819.49,975.435C1593.07,975.435 1409.53,791.889 1409.53,565.475C1409.53,339.06 1593.07,155.515 1819.49,155.515C2045.9,155.515 2229.45,339.06 2229.45,565.475C2229.45,791.889 2045.9,975.435 1819.49,975.435ZM1819.49,129.892C1578.92,129.892 1383.91,324.909 1383.91,565.475C1383.91,806.04 1578.92,1001.06 1819.49,1001.06C2060.05,1001.06 2255.07,806.04 2255.07,565.475C2255.07,324.909 2060.05,129.892 1819.49,129.892Z" style="fill:rgb(63,65,59);fill-rule:nonzero;"/>
    </g>
    <g transform="matrix(0.0300217,0,0,0.0300219,-40.6241,-2.97655)">
        <path d="M2039.08,542.389L2142.23,413.943L2163.06,434.277L2046.02,547.845L2039.08,542.389Z" style="fill:rgb(63,65,59);fill-rule:nonzero;"/>
    </g>
    <g transform="matrix(0.0300217,0,0,0.0300219,-40.6241,-2.97655)">
        <path d="M2039.08,609.836L2142.23,738.283L2163.06,717.95L2046.02,604.381L2039.08,609.836Z" style="fill:rgb(63,65,59);fill-rule:nonzero;"/>
    </g>
    <g transform="matrix(0.0300217,0,0,0.0300219,-40.6241,-2.97655)">
        <path d="M2053.46,572.146L2173.48,560.243L2173.48,590.991L2053.46,587.519L2053.46,572.146Z" style="fill:rgb(63,65,59);fill-rule:nonzero;"/>
    </g>
    <g transform="matrix(0.0300217,0,0,0.0300219,-40.6241,-2.97655)">
        <path d="M1945.57,621.712L1987.68,569.085C1989.34,567.004 1989.45,564.079 1987.95,561.876L1978.74,548.337C1976.35,544.838 1976.85,540.129 1979.91,537.204L2015.33,503.326C2017.86,500.901 2017.51,496.754 2014.6,494.802C2005.63,488.793 1987.8,477.193 1974.75,470.909C1965.37,466.389 1956.96,459.989 1950.59,451.745C1945.05,444.577 1939.39,434.831 1935.71,422.128C1935.22,420.446 1934.86,418.74 1934.54,417.02C1931.85,402.726 1914.41,324.918 1849.63,304.227C1849.63,304.227 1674.54,250.416 1574.81,387.713C1556.84,412.443 1544.75,440.908 1540,471.103C1532.11,521.223 1536.08,601.509 1616.55,666.257C1616.55,666.257 1672.09,715.85 1672.09,756.516L1671.1,858.389L1928.98,858.389C1928.98,858.389 1911.28,785.499 1910.45,750.506C1910.3,744.01 1914.89,738.374 1921.27,737.177C1948.53,732.07 2020.92,710.643 2015.27,627.574L1948.39,627.574C1945.37,627.574 1943.68,624.075 1945.57,621.712Z" style="fill:rgb(63,65,59);fill-rule:nonzero;"/>
    </g>
    <g transform="matrix(0.0300217,0,0,0.0300219,-40.6241,-2.97655)">
        <path d="M2038.84,841.684L1525.84,328.683L1593.19,261.341L2106.19,774.342L2038.84,841.684Z" style="fill:rgb(246,208,46);fill-rule:nonzero;"/>
    </g>
    <g transform="matrix(0.0300217,0,0,0.0300219,-40.6241,-2.97655)">
        <path d="M2054.58,825.947L1541.58,312.946L1577.45,277.078L2090.45,790.079L2054.58,825.947Z" style="fill:rgb(63,65,59);fill-rule:nonzero;"/>
    </g>
</svg>