<?xml version="1.0" encoding="UTF-8" standalone="no"?>
<!DOCTYPE svg PUBLIC "-//W3C//DTD SVG 1.1//EN" "http://www.w3.org/Graphics/SVG/1.1/DTD/svg11.dtd">
<svg width="100%" height="100%" viewBox="0 0 32 32" version="1.1" xmlns="http://www.w3.org/2000/svg" xmlns:xlink="http://www.w3.org/1999/xlink" xml:space="preserve" xmlns:serif="http://www.serif.com/" style="fill-rule:evenodd;clip-rule:evenodd;stroke-linejoin:round;stroke-miterlimit:2;">
    <g>
        <g transform="matrix(0.0170091,0,0,0.0170091,-18.0691,-18.018)">
            <path d="M2943.67,2000C2943.67,2519.52 2522.52,2940.67 2003,2940.67C1483.48,2940.67 1062.32,2519.52 1062.32,2000C1062.32,1480.48 1483.48,1059.32 2003,1059.32C2522.52,1059.32 2943.67,1480.48 2943.67,2000Z" style="fill:rgb(29,79,111);fill-rule:nonzero;"/>
        </g>
        <g transform="matrix(0.0170091,0,0,0.0170091,-18.0691,-18.018)">
            <path d="M2802.4,2000C2802.4,2441.5 2444.5,2799.4 2003,2799.4C1561.5,2799.4 1203.6,2441.5 1203.6,2000C1203.6,1558.5 1561.5,1200.6 2003,1200.6C2444.5,1200.6 2802.4,1558.5 2802.4,2000Z" style="fill:rgb(230,230,230);fill-rule:nonzero;"/>
        </g>
        <g transform="matrix(0.0170091,0,0,0.0170091,-18.0691,-18.018)">
            <path d="M2816.32,2000L2788.48,2000C2788.48,2108.49 2766.5,2211.77 2726.76,2305.74C2667.15,2446.68 2567.53,2566.65 2442.16,2651.34C2316.78,2736.04 2165.73,2785.48 2003,2785.48C1894.51,2785.48 1791.22,2763.5 1697.26,2723.76C1556.32,2664.15 1436.35,2564.53 1351.66,2439.16C1266.96,2313.78 1217.52,2162.73 1217.52,2000C1217.52,1891.51 1239.5,1788.23 1279.24,1694.26C1338.85,1553.32 1438.47,1433.35 1563.84,1348.66C1689.22,1263.96 1840.27,1214.52 2003,1214.52C2111.49,1214.52 2214.77,1236.5 2308.74,1276.24C2449.68,1335.85 2569.65,1435.47 2654.34,1560.84C2739.04,1686.22 2788.48,1837.27 2788.48,2000L2816.32,2000C2816.32,1887.74 2793.56,1780.73 2752.4,1683.42C2690.65,1537.44 2587.54,1413.29 2457.74,1325.59C2327.95,1237.9 2171.4,1186.68 2003,1186.68C1890.74,1186.68 1783.73,1209.44 1686.42,1250.6C1540.44,1312.35 1416.29,1415.46 1328.59,1545.26C1240.9,1675.05 1189.68,1831.6 1189.68,2000C1189.68,2112.26 1212.44,2219.27 1253.6,2316.58C1315.35,2462.56 1418.46,2586.71 1548.26,2674.41C1678.05,2762.1 1834.6,2813.32 2003,2813.32C2115.26,2813.32 2222.27,2790.56 2319.58,2749.4C2465.56,2687.65 2589.71,2584.54 2677.41,2454.74C2765.1,2324.95 2816.32,2168.4 2816.32,2000Z" style="fill:rgb(179,179,179);fill-rule:nonzero;"/>
        </g>
        <g transform="matrix(0.0170091,0,0,0.0170091,-18.0691,-18.018)">
            <path d="M2091.69,1377.2C2091.69,1428.11 2050.42,1469.39 1999.5,1469.39C1948.59,1469.39 1907.31,1428.11 1907.31,1377.2C1907.31,1326.29 1948.59,1285.01 1999.5,1285.01C2050.42,1285.01 2091.69,1326.29 2091.69,1377.2Z" style="fill:rgb(179,179,179);fill-rule:nonzero;"/>
        </g>
        <g transform="matrix(0.0170091,0,0,0.0170091,-18.0691,-18.018)">
            <path d="M2719.81,2005.32C2719.81,2056.24 2678.54,2097.51 2627.63,2097.51C2576.71,2097.51 2535.44,2056.24 2535.44,2005.32C2535.44,1954.41 2576.71,1913.13 2627.63,1913.13C2678.54,1913.13 2719.81,1954.41 2719.81,2005.32Z" style="fill:rgb(179,179,179);fill-rule:nonzero;"/>
        </g>
        <g transform="matrix(0.0170091,0,0,0.0170091,-18.0691,-18.018)">
            <path d="M2093.1,2632.03C2093.1,2682.95 2051.83,2724.22 2000.91,2724.22C1950,2724.22 1908.72,2682.95 1908.72,2632.03C1908.72,2581.12 1950,2539.84 2000.91,2539.84C2051.83,2539.84 2093.1,2581.12 2093.1,2632.03Z" style="fill:rgb(179,179,179);fill-rule:nonzero;"/>
        </g>
        <g transform="matrix(0.0170091,0,0,0.0170091,-18.0691,-18.018)">
            <path d="M1463.34,2000C1463.34,2050.92 1422.06,2092.19 1371.15,2092.19C1320.23,2092.19 1278.96,2050.92 1278.96,2000C1278.96,1949.08 1320.23,1907.81 1371.15,1907.81C1422.06,1907.81 1463.34,1949.08 1463.34,2000Z" style="fill:rgb(179,179,179);fill-rule:nonzero;"/>
        </g>
        <g transform="matrix(0.0170091,0,0,0.0170091,-18.0691,-18.018)">
            <path d="M1832.48,1828.76L1978.66,2022.01L2171.6,2167.88L2025.42,1974.63L1832.48,1828.76Z" style="fill:rgb(179,179,179);fill-rule:nonzero;"/>
        </g>
        <g transform="matrix(0.0170091,0,0,0.0170091,-18.0691,-18.018)">
            <path d="M2171.6,1828.76L1978.35,1974.94L1832.48,2167.88L2025.73,2021.7L2171.6,1828.76Z" style="fill:rgb(179,179,179);fill-rule:nonzero;"/>
        </g>
        <g transform="matrix(0.0170091,0,0,0.0170091,-18.0691,-18.018)">
            <path d="M2002.04,1552.5L1940.16,1998.73L2002.04,2444.14L2063.93,1997.91L2002.04,1552.5Z" style="fill:rgb(179,179,179);fill-rule:nonzero;"/>
        </g>
        <g transform="matrix(0.0170091,0,0,0.0170091,-18.0691,-18.018)">
            <path d="M2447.86,1998.32L2001.63,1936.43L1556.22,1998.32L2002.45,2060.21L2447.86,1998.32Z" style="fill:rgb(179,179,179);fill-rule:nonzero;"/>
        </g>
        <g transform="matrix(0.0170091,0,0,0.0170091,-18.0691,-18.018)">
            <path d="M2079.57,2065.05L1521.76,2505.73L1502.05,2488.33L1956.64,1914.29L2079.57,2065.05Z" style="fill:rgb(29,79,111);fill-rule:nonzero;"/>
        </g>
        <g transform="matrix(0.0170091,0,0,0.0170091,-18.0691,-18.018)">
            <path d="M1512.39,2497.46L1502.05,2488.33L1512.39,2497.46Z" style="fill:rgb(196,196,196);fill-rule:nonzero;"/>
        </g>
        <g transform="matrix(0.0170091,0,0,0.0170091,-18.0691,-18.018)">
            <path d="M1961.11,1919.77L1956.64,1914.29L1961.11,1919.77Z" style="fill:rgb(152,152,152);fill-rule:nonzero;"/>
        </g>
        <g transform="matrix(0.0170091,0,0,0.0170091,-18.0691,-18.018)">
            <path d="M1512.39,2497.46L1502.05,2488.33L1935.33,1941.21L1995.48,2014.98L1512.39,2497.46ZM1937.59,1938.35L1956.64,1914.29L1961.11,1919.77L1937.59,1938.35Z" style="fill:rgb(25,67,94);fill-rule:nonzero;"/>
        </g>
        <g transform="matrix(0.0170091,0,0,0.0170091,-18.0691,-18.018)">
            <path d="M1934.8,1940.56L2492.6,1499.88L2512.32,1517.28L2057.72,2091.32L1934.8,1940.56Z" style="fill:rgb(193,39,45);fill-rule:nonzero;"/>
        </g>
        <g transform="matrix(0.0170091,0,0,0.0170091,-18.0691,-18.018)">
            <path d="M2512.32,1517.28L2501.91,1508.09L2512.32,1517.28Z" style="fill:rgb(196,196,196);fill-rule:nonzero;"/>
        </g>
        <g transform="matrix(0.0170091,0,0,0.0170091,-18.0691,-18.018)">
            <path d="M2057.72,2091.32L1995.04,2014.44L2501.91,1508.09L2512.32,1517.28L2076.77,2067.26L2062.44,2085.36L2057.72,2091.32Z" style="fill:rgb(164,33,38);fill-rule:nonzero;"/>
        </g>
        <g transform="matrix(0.0170091,0,0,0.0170091,-18.0691,-18.018)">
            <path d="M2009.78,2127.41C1939.41,2127.41 1882.37,2070.36 1882.37,1999.99C1882.37,1929.63 1939.41,1872.58 2009.78,1872.58C2080.15,1872.58 2137.2,1929.63 2137.2,1999.99C2137.2,2070.36 2080.15,2127.41 2009.78,2127.41Z" style="fill:rgb(29,79,111);fill-rule:nonzero;"/>
        </g>
        <g transform="matrix(0.0170091,0,0,0.0170091,-18.0691,-18.018)">
            <path d="M2009.99,2095.95C1956.74,2095.95 1913.57,2052.78 1913.57,1999.53C1913.57,1946.29 1956.74,1903.12 2009.99,1903.12C2063.24,1903.12 2106.4,1946.29 2106.4,1999.53C2106.4,2052.78 2063.24,2095.95 2009.99,2095.95Z" style="fill:rgb(26,26,26);fill-rule:nonzero;"/>
        </g>
    </g>
</svg>
