<?xml version="1.0" encoding="UTF-8" standalone="no"?>
<!DOCTYPE svg PUBLIC "-//W3C//DTD SVG 1.1//EN" "http://www.w3.org/Graphics/SVG/1.1/DTD/svg11.dtd">
<svg width="100%" height="100%" viewBox="0 0 28 28" version="1.1" xmlns="http://www.w3.org/2000/svg" xmlns:xlink="http://www.w3.org/1999/xlink" xml:space="preserve" xmlns:serif="http://www.serif.com/" style="fill-rule:evenodd;clip-rule:evenodd;stroke-linecap:round;stroke-linejoin:round;stroke-miterlimit:2;">
    <g transform="matrix(0.466667,0,0,0.466667,0,-0.466667)">
        <path d="M30,61C46.523,61 60,47.524 60,31C60,14.477 46.523,1 30,1C13.477,1 0,14.477 0,31C0,47.524 13.477,61 30,61Z" style="fill:rgb(21,101,192);"/>
    </g>
    <g transform="matrix(0.647679,0,0,0.647679,-5.43036,-6.07836)">
        <path d="M40.243,23.015L40.008,23.015C40.047,22.702 40.087,22.35 40.087,22.037C40.087,18.679 37.324,15.945 33.927,15.945C32.626,15.945 31.402,16.335 30.413,17.039C29.822,16.883 29.189,16.766 28.56,16.766C25.677,16.766 23.231,18.795 22.599,21.451C21.651,21.297 21.138,21.258 20.349,21.373C16.124,21.959 13.598,25.279 13.598,29.106C13.598,32.466 16.362,35.199 19.757,35.199L21.73,35.199L21.73,33.366C21.73,32.819 22.167,32.387 22.717,32.387L30.019,32.387L30.019,31.177L30.019,32.387L37.282,32.387C37.835,32.387 38.27,32.818 38.27,33.366L38.27,35.199L40.243,35.199C43.638,35.199 46.402,32.466 46.402,29.106C46.402,25.747 43.639,23.015 40.243,23.015ZM37.283,26.764L22.718,26.764C22.168,26.764 21.73,27.193 21.73,27.741L21.73,30.162C21.73,30.709 22.168,31.139 22.718,31.139L37.283,31.139C37.835,31.139 38.271,30.71 38.271,30.162L38.271,27.741C38.271,27.193 37.835,26.764 37.283,26.764Z" style="fill:none;stroke:rgb(254,254,254);stroke-width:1.16px;"/>
    </g>
    <g transform="matrix(0.647679,0,0,0.647679,-5.43036,-6.07836)">
        <path d="M21.612,24.107C21.612,24.107 16.797,24.577 16.638,30.396" style="fill:none;stroke:rgb(254,254,254);stroke-width:1.16px;"/>
    </g>
    <g transform="matrix(0.647679,0,0,0.647679,-5.43036,-6.07836)">
        <path d="M37.283,32.387L22.718,32.387C22.168,32.387 21.73,32.818 21.73,33.366L21.73,35.824C21.73,36.332 22.168,36.802 22.718,36.802L37.283,36.802C37.835,36.802 38.271,36.332 38.271,35.824L38.271,33.366C38.271,32.818 37.835,32.387 37.283,32.387Z" style="fill:none;stroke:rgb(254,254,254);stroke-width:1.16px;"/>
    </g>
    <g transform="matrix(0.647679,0,0,0.647679,-5.43036,-6.07836)">
        <path d="M23.822,33.949C23.466,33.949 23.19,34.223 23.19,34.576C23.19,34.927 23.466,35.238 23.822,35.238C24.178,35.238 24.493,34.927 24.493,34.576C24.493,34.223 24.178,33.949 23.822,33.949Z" style="fill:none;stroke:rgb(254,254,254);stroke-width:1.16px;"/>
    </g>
    <g transform="matrix(0.647679,0,0,0.647679,-5.43036,-6.07836)">
        <path d="M37.283,38.012L22.718,38.012C22.168,38.012 21.73,38.479 21.73,38.988L21.73,41.449C21.73,41.957 22.168,42.423 22.718,42.423L37.283,42.423C37.835,42.423 38.271,41.957 38.271,41.448L38.271,38.988C38.271,38.479 37.835,38.012 37.283,38.012Z" style="fill:none;stroke:rgb(254,254,254);stroke-width:1.16px;"/>
    </g>
    <g transform="matrix(0.647679,0,0,0.647679,-5.43036,-6.07836)">
        <path d="M23.822,39.574C23.466,39.574 23.19,39.887 23.19,40.199C23.19,40.549 23.466,40.862 23.822,40.862C24.178,40.862 24.493,40.549 24.493,40.199C24.493,39.887 24.178,39.574 23.822,39.574Z" style="fill:none;stroke:rgb(254,254,254);stroke-width:1.16px;"/>
    </g>
    <g transform="matrix(0.647679,0,0,0.647679,-5.43036,-6.07836)">
        <path d="M30.019,31.177L30.019,32.387M30.019,36.802L30.019,38.012M30.019,42.423L30.019,44.807" style="fill:none;stroke:rgb(254,254,254);stroke-width:1.16px;"/>
    </g>
    <g transform="matrix(0.647679,0,0,0.647679,-5.43036,-6.07836)">
        <path d="M30.019,44.807C29.665,44.807 29.349,45.079 29.349,45.431C29.349,45.784 29.665,46.056 30.019,46.056C30.336,46.056 30.651,45.784 30.651,45.431C30.651,45.079 30.336,44.807 30.019,44.807Z" style="fill:none;stroke:rgb(254,254,254);stroke-width:1.16px;"/>
    </g>
    <g transform="matrix(0.647679,0,0,0.647679,-5.43036,-6.07836)">
        <path d="M36.847,45.432L30.65,45.432M29.349,45.432L23.151,45.432" style="fill:none;stroke:rgb(254,254,254);stroke-width:1.16px;"/>
    </g>
    <g transform="matrix(0.647679,0,0,0.647679,-5.43036,-6.07836)">
        <path d="M23.822,28.327C23.466,28.327 23.19,28.599 23.19,28.951C23.19,29.302 23.466,29.575 23.822,29.575C24.178,29.575 24.493,29.302 24.493,28.951C24.493,28.599 24.178,28.327 23.822,28.327Z" style="fill:none;stroke:rgb(254,254,254);stroke-width:1.16px;"/>
    </g>
</svg>
